<mxfile host="app.diagrams.net" modified="2023-08-28T07:21:33.843Z" agent="Mozilla/5.0 (Windows NT 10.0; Win64; x64) AppleWebKit/537.36 (KHTML, like Gecko) Chrome/116.0.0.0 Safari/537.36" version="21.6.9" etag="FmBPZwABU5Il5XQN401t" type="github">
  <diagram name="第 1 页" id="w29eUsYQMgsEGiDY92V3">
    <mxGraphModel>
      <root>
        <mxCell id="0" />
        <mxCell id="1" parent="0" />
      </root>
    </mxGraphModel>
  </diagram>
</mxfile>
